<svg xmlns="http://www.w3.org/2000/svg" version="1.1" xmlns:xlink="http://www.w3.org/1999/xlink" width="512" height="512" x="0" y="0" viewBox="0 0 512.001 512.001" style="enable-background:new 0 0 512 512" xml:space="preserve" class=""><g><path d="M503.172 423.725H8.828A8.829 8.829 0 0 1 0 414.897V97.104a8.829 8.829 0 0 1 8.828-8.828h494.345a8.829 8.829 0 0 1 8.828 8.828v317.793a8.83 8.83 0 0 1-8.829 8.828z" style="" fill="#73af00" data-original="#73af00" class=""></path><path d="M251.41 135.209 65.354 248.46c-5.651 3.439-5.651 11.641 0 15.081L251.41 376.793a8.828 8.828 0 0 0 9.18 0l186.057-113.251c5.651-3.439 5.651-11.641 0-15.081L260.59 135.209a8.828 8.828 0 0 0-9.18 0z" style="" fill="#ffe15a" data-original="#ffe15a"></path><circle cx="256" cy="256.001" r="70.62" style="" fill="#41479b" data-original="#41479b"></circle><path d="M195.401 219.874a70.117 70.117 0 0 0-7.605 18.077c39.149-2.946 97.062 8.006 133.922 43.773a70.114 70.114 0 0 0 4.59-19.522c-38.061-32.033-90.68-43.424-130.907-42.328zM258.925 280.1l1.88 5.638 5.943.046c.769.006 1.088.988.47 1.445l-4.781 3.531 1.793 5.666c.232.734-.604 1.341-1.229.893l-4.835-3.456-4.835 3.456c-.626.448-1.461-.159-1.229-.893l1.793-5.666-4.781-3.531c-.619-.457-.3-1.439.469-1.445l5.943-.046 1.88-5.638c.243-.73 1.275-.73 1.519 0zM282.024 294.685l.809 2.426 2.558.02a.345.345 0 0 1 .202.622l-2.058 1.519.771 2.439a.344.344 0 0 1-.529.384l-2.081-1.487-2.081 1.487a.344.344 0 0 1-.529-.384l.771-2.439-2.058-1.519a.345.345 0 0 1 .202-.622l2.558-.02.809-2.426a.346.346 0 0 1 .656 0zM248.938 269.39l.809 2.426 2.558.02a.345.345 0 0 1 .202.622l-2.058 1.519.771 2.439a.344.344 0 0 1-.529.384l-2.081-1.487-2.081 1.487a.344.344 0 0 1-.529-.384l.771-2.439-2.058-1.519a.345.345 0 0 1 .202-.622l2.558-.02.809-2.426a.346.346 0 0 1 .656 0zM204.13 266.448l.809 2.426 2.558.02a.345.345 0 0 1 .202.622l-2.058 1.519.771 2.439a.344.344 0 0 1-.529.384l-2.081-1.487-2.081 1.487a.344.344 0 0 1-.529-.384l.771-2.439-2.058-1.519a.345.345 0 0 1 .202-.622l2.558-.02.809-2.426c.107-.314.551-.314.656 0zM241.614 293.847l.809 2.426 2.558.02a.345.345 0 0 1 .202.622l-2.058 1.519.771 2.439a.344.344 0 0 1-.529.384l-2.081-1.487-2.081 1.487a.344.344 0 0 1-.529-.384l.771-2.439-2.058-1.519a.345.345 0 0 1 .202-.622l2.558-.02.809-2.426c.107-.313.552-.313.656 0zM220.99 264.755l.662 1.984 2.092.017c.27.002.383.348.166.509l-1.683 1.242.631 1.994a.282.282 0 0 1-.433.314l-1.702-1.216-1.702 1.216a.282.282 0 0 1-.433-.314l.631-1.994-1.683-1.242a.282.282 0 0 1 .166-.509l2.092-.017.662-1.984a.281.281 0 0 1 .534 0zM283.819 223.794l.828 2.482 2.616.02a.352.352 0 0 1 .206.636l-2.104 1.554.789 2.495a.352.352 0 0 1-.541.393l-2.129-1.522-2.129 1.522a.352.352 0 0 1-.541-.393l.789-2.495-2.104-1.554a.352.352 0 0 1 .206-.636l2.616-.02.828-2.482a.353.353 0 0 1 .67 0zM207.012 252.617l.662 1.984 2.092.017c.27.002.383.348.166.509l-1.683 1.242.631 1.994a.282.282 0 0 1-.433.314l-1.702-1.216-1.702 1.216a.282.282 0 0 1-.433-.314l.631-1.994-1.683-1.242a.282.282 0 0 1 .166-.509l2.092-.017.662-1.984a.281.281 0 0 1 .534 0zM217.112 280.581l1.002 3.006 3.168.024c.41.003.58.526.25.77l-2.549 1.882.956 3.02a.427.427 0 0 1-.655.476l-2.578-1.842-2.578 1.842a.427.427 0 0 1-.655-.476l.956-3.02-2.549-1.882a.427.427 0 0 1 .25-.77l3.168-.024 1.002-3.006c.133-.388.683-.388.812 0zM294.903 295.315l.63 1.891 1.993.015a.268.268 0 0 1 .158.484l-1.603 1.184.601 1.9c.078.246-.202.449-.413.299l-1.621-1.159-1.622 1.159a.269.269 0 0 1-.413-.299l.601-1.9-1.603-1.184a.268.268 0 0 1 .158-.484l1.993-.015.63-1.891c.083-.245.43-.245.511 0zM301.877 280.885l.809 2.426 2.558.02a.345.345 0 0 1 .202.622l-2.058 1.519.771 2.439a.344.344 0 0 1-.529.384l-2.081-1.487-2.081 1.487a.344.344 0 0 1-.529-.384l.771-2.439-2.058-1.519a.345.345 0 0 1 .202-.622l2.558-.02.809-2.426a.346.346 0 0 1 .656 0z" style="" fill="#f5f5f5" data-original="#f5f5f5"></path></g></svg>